<?xml version="1.0" encoding="UTF-8"?>
<svg version="1.1" xmlns="http://www.w3.org/2000/svg" width="813" height="171">
<path d="M0 0 C268.29 0 536.58 0 813 0 C813 56.43 813 112.86 813 171 C544.71 171 276.42 171 0 171 C0 114.57 0 58.14 0 0 Z " fill="#FCFCFC" transform="translate(0,0)"/>
<path d="M0 0 C1.43680484 1.205565 2.8539488 2.43496809 4.25 3.6875 C4.94996094 4.30625 5.64992188 4.925 6.37109375 5.5625 C17.62239349 16.11192282 22.70775999 30.02303472 23.41796875 45.30078125 C23.51531975 63.73906044 18.95348114 79.18525161 6.15625 92.9375 C0.58758066 98.26405328 -5.65909151 101.74164463 -12.75 104.6875 C-13.38131836 104.95747803 -14.01263672 105.22745605 -14.66308594 105.50561523 C-21.38487888 108.09665876 -27.85800341 108.18745777 -35 108.125 C-36.20205078 108.11742676 -37.40410156 108.10985352 -38.64257812 108.10205078 C-47.03766977 107.94569848 -54.08040621 107.31747095 -61.75 103.6875 C-62.68070313 103.28660156 -63.61140625 102.88570313 -64.5703125 102.47265625 C-78.14450443 95.95023812 -87.66465827 83.67218977 -92.75 69.6875 C-96.82339901 55.73456129 -97.36984383 36.80345226 -90.75 23.6875 C-90.32589844 22.76453125 -89.90179688 21.8415625 -89.46484375 20.890625 C-81.95179227 5.73895572 -70.25262247 -2.59531083 -54.6953125 -8.3671875 C-37.35263632 -13.93340452 -14.57901583 -10.97183666 0 0 Z " fill="#020202" transform="translate(195.75,19.3125)"/>
<path d="M0 0 C7 0 7 0 8.78173828 1.13891602 C9.20696777 1.67186279 9.63219727 2.20480957 10.0703125 2.75390625 C10.56732666 3.35340088 11.06434082 3.95289551 11.57641602 4.57055664 C12.08744873 5.22789795 12.59848145 5.88523926 13.125 6.5625 C14.26115395 7.94837989 15.39788907 9.33378349 16.53515625 10.71875 C17.1089502 11.43160156 17.68274414 12.14445312 18.27392578 12.87890625 C20.95733036 16.17641954 23.76184915 19.36464449 26.5625 22.5625 C32.23328292 29.09584019 37.86564824 35.66182722 43.48974609 42.23535156 C46.11629844 45.3043332 48.74583447 48.3707571 51.375 51.4375 C52.32032568 52.54035328 53.26563863 53.64321748 54.2109375 54.74609375 C55.13132812 55.81988281 56.05171875 56.89367187 57 58 C58.98 60.31 60.96 62.62 63 65 C63.33 44.21 63.66 23.42 64 2 C71.59 2 79.18 2 87 2 C87 40.61 87 79.22 87 119 C80 119 80 119 78.171875 117.671875 C77.70265625 117.03765625 77.2334375 116.4034375 76.75 115.75 C73.81056155 112.01611873 70.73667467 108.47748239 67.5 105 C63.85350662 101.04358543 60.26080866 97.04816998 56.734375 92.984375 C53.20499286 88.94625309 49.59365774 84.98085319 46 81 C43.7557208 78.5072193 41.51229619 76.0136744 39.26953125 73.51953125 C37.70727799 71.78518814 36.14199577 70.05357021 34.57421875 68.32421875 C33.78660156 67.45410156 32.99898438 66.58398438 32.1875 65.6875 C31.47980469 64.90761719 30.77210938 64.12773438 30.04296875 63.32421875 C27.95335599 60.94693463 25.97723249 58.47154061 24 56 C23.67 76.13 23.34 96.26 23 117 C15.41 117 7.82 117 0 117 C0 78.39 0 39.78 0 0 Z " fill="#010101" transform="translate(354,9)"/>
<path d="M0 0 C7 0 7 0 9.88671875 2.5703125 C10.84100547 3.7386071 11.77354906 4.92488787 12.6875 6.125 C13.73252111 7.41971642 14.7781099 8.7139748 15.82421875 10.0078125 C16.6138501 11.00603027 16.6138501 11.00603027 17.41943359 12.02441406 C19.86765268 15.08449884 22.43470965 18.03807598 25 21 C26.00065759 22.16610269 27.00065598 23.33277138 28 24.5 C28.495 25.0775 28.99 25.655 29.5 26.25 C31 28 32.5 29.75 34 31.5 C34.49532227 32.07782227 34.99064453 32.65564453 35.50097656 33.25097656 C36.49793597 34.41420412 37.49468183 35.57761473 38.49121094 36.74121094 C41.03598537 39.71205617 43.58473256 42.67933698 46.140625 45.640625 C46.92179687 46.54748047 46.92179687 46.54748047 47.71875 47.47265625 C48.69128338 48.60148964 49.66509459 49.72922437 50.640625 50.85546875 C54.90145358 55.80626105 58.90946193 60.88682742 63 66 C63.33 44.88 63.66 23.76 64 2 C71.59 2 79.18 2 87 2 C87 40.61 87 79.22 87 119 C80 119 80 119 77.15625 116.65625 C76.2507542 115.62139766 75.36596518 114.56815089 74.5 113.5 C74.02498047 112.94828125 73.54996094 112.3965625 73.06054688 111.828125 C71.69017217 110.2321512 70.34457938 108.61769707 69 107 C67.8374541 105.66307221 66.67144381 104.32913817 65.5 103 C64.96375 102.38125 64.4275 101.7625 63.875 101.125 C61.45449858 98.38176506 58.97795822 95.69118757 56.5 93 C52.8558306 89.04140277 49.26086221 85.04823168 45.734375 80.984375 C43.71901237 78.67850965 41.67446124 76.40060869 39.625 74.125 C38.87476563 73.29097656 38.12453125 72.45695312 37.3515625 71.59765625 C35.72977304 69.80614464 34.09898846 68.02274902 32.4609375 66.24609375 C31.24277344 64.91771484 31.24277344 64.91771484 30 63.5625 C28.88625 62.35787109 28.88625 62.35787109 27.75 61.12890625 C26 59 26 59 25 56 C24.34 56 23.68 56 23 56 C23 76.13 23 96.26 23 117 C15.41 117 7.82 117 0 117 C0 78.39 0 39.78 0 0 Z " fill="#010101" transform="translate(241,9)"/>
<path d="M0 0 C1.88322449 0.27716064 1.88322449 0.27716064 4 1 C5.06343079 2.54168701 5.06343079 2.54168701 5.8684082 4.56542969 C6.18064835 5.32828278 6.49288849 6.09113586 6.81459045 6.87710571 C7.3027549 8.13676651 7.3027549 8.13676651 7.80078125 9.421875 C8.33033669 10.73362198 8.33033669 10.73362198 8.87059021 12.0718689 C10.03230495 14.9590342 11.17221386 17.85431228 12.3125 20.75 C13.11795376 22.76216205 13.92493568 24.77371301 14.73339844 26.78466797 C16.37955711 30.88501469 18.01768746 34.98842169 19.64892578 39.09472656 C22.67379054 46.70392822 25.75348829 54.290574 28.8369751 61.87615967 C29.74762538 64.11915116 30.65527813 66.36333276 31.56201172 68.60791016 C34.68620372 76.33720386 37.84210337 84.0521161 41.04296875 91.75 C41.37211273 92.54300507 41.70125671 93.33601013 42.04037476 94.15304565 C43.61587699 97.94867391 45.19620257 101.7421307 46.78613281 105.53173828 C47.34593251 106.87783432 47.9055153 108.22402059 48.46484375 109.5703125 C48.955896 110.74352051 49.44694824 111.91672852 49.95288086 113.12548828 C51 116 51 116 51 119 C42.42 119 33.84 119 25 119 C23.68 115.37 22.36 111.74 21 108 C1.695 107.505 1.695 107.505 -18 107 C-18.99 110.63 -19.98 114.26 -21 118 C-22 119 -22 119 -24.50024414 119.11352539 C-25.58426514 119.10828857 -26.66828613 119.10305176 -27.78515625 119.09765625 C-29.53989258 119.09282227 -29.53989258 119.09282227 -31.33007812 119.08789062 C-33.17762695 119.07532227 -33.17762695 119.07532227 -35.0625 119.0625 C-36.91584961 119.05573242 -36.91584961 119.05573242 -38.80664062 119.04882812 C-41.87114117 119.03699608 -44.93554721 119.02051173 -48 119 C-44.01395528 108.21433754 -39.843973 97.5211046 -35.5 86.875 C-34.86913067 85.32437039 -34.23844046 83.77366789 -33.60791016 82.22290039 C-32.20512859 78.77418725 -30.80082728 75.3260977 -29.39550781 71.87841797 C-27.1895656 66.46631003 -24.98658999 61.05299792 -22.78399658 55.63952637 C-20.31510771 49.57186805 -17.84512506 43.50465516 -15.375 37.4375 C-14.89619385 36.26129089 -14.4173877 35.08508179 -13.92407227 33.87322998 C-12.54107608 30.47646075 -11.15736747 27.07998262 -9.7734375 23.68359375 C-9.36560028 22.68171524 -8.95776306 21.67983673 -8.53756714 20.64759827 C-5.72607108 13.75061428 -2.87342057 6.87140633 0 0 Z " fill="#030303" transform="translate(761,7)"/>
<path d="M0 0 C19.14 0 38.28 0 58 0 C58 7.59 58 15.18 58 23 C46.45 23 34.9 23 23 23 C23 30.59 23 38.18 23 46 C33.23 46 43.46 46 54 46 C54 53.59 54 61.18 54 69 C43.77 69 33.54 69 23 69 C23 76.59 23 84.18 23 92 C35.21 92 47.42 92 60 92 C60 99.59 60 107.18 60 115 C40.2 115 20.4 115 0 115 C0 77.05 0 39.1 0 0 Z " fill="#030303" transform="translate(467,11)"/>
<path d="M0 0 C1.66675781 -0.0299707 1.66675781 -0.0299707 3.3671875 -0.06054688 C10.72491173 -0.0562188 16.40335445 1.16058282 23 4.4375 C22.85823579 7.14610124 22.71171784 9.85430752 22.5625 12.5625 C22.52318359 13.32304687 22.48386719 14.08359375 22.44335938 14.8671875 C22.20490998 19.12259203 21.79769763 23.24120826 21 27.4375 C18.33098062 26.96649658 15.92480726 26.40845849 13.390625 25.4296875 C4.21629651 22.74503377 -7.14402997 22.92135977 -15.8125 27 C-24.30331869 32.05659635 -28.91363268 39.17839803 -32 48.4375 C-33.17288987 61.20015956 -32.63118976 72.00497101 -24.375 82.25 C-18.17812146 88.79436706 -10.78093768 91.99725381 -1.87109375 92.67578125 C5.64267529 92.83819492 11.64620265 92.01757171 18.671875 89.3125 C21 88.4375 21 88.4375 23 88.4375 C24.64733759 96.41829085 25.50877547 104.30644139 26 112.4375 C12.23671737 117.54176376 -3.79812969 118.803446 -18 114.4375 C-19.31097656 114.07011719 -19.31097656 114.07011719 -20.6484375 113.6953125 C-33.74588752 109.54962104 -43.62058521 100.73986949 -50.25 88.875 C-58.06029358 73.75294221 -61.03466007 57.05195397 -56.08984375 40.39453125 C-50.1852343 24.37378088 -41.61750691 13.33302998 -26.65234375 5.05859375 C-17.68250891 1.07733016 -9.79936065 -0.06252492 0 0 Z " fill="#030303" transform="translate(601,9.5625)"/>
<path d="M0 0 C1.66675781 -0.0299707 1.66675781 -0.0299707 3.3671875 -0.06054688 C10.72491173 -0.0562188 16.40335445 1.16058282 23 4.4375 C22.85823579 7.14610124 22.71171784 9.85430752 22.5625 12.5625 C22.52318359 13.32304687 22.48386719 14.08359375 22.44335938 14.8671875 C22.20490998 19.12259203 21.79769763 23.24120826 21 27.4375 C18.33098062 26.96649658 15.92480726 26.40845849 13.390625 25.4296875 C4.21629651 22.74503377 -7.14402997 22.92135977 -15.8125 27 C-24.30331869 32.05659635 -28.91363268 39.17839803 -32 48.4375 C-33.17288987 61.20015956 -32.63118976 72.00497101 -24.375 82.25 C-18.17812146 88.79436706 -10.78093768 91.99725381 -1.87109375 92.67578125 C5.64267529 92.83819492 11.64620265 92.01757171 18.671875 89.3125 C21 88.4375 21 88.4375 23 88.4375 C24.64733759 96.41829085 25.50877547 104.30644139 26 112.4375 C12.23671737 117.54176376 -3.79812969 118.803446 -18 114.4375 C-19.31097656 114.07011719 -19.31097656 114.07011719 -20.6484375 113.6953125 C-33.74588752 109.54962104 -43.62058521 100.73986949 -50.25 88.875 C-58.06029358 73.75294221 -61.03466007 57.05195397 -56.08984375 40.39453125 C-50.1852343 24.37378088 -41.61750691 13.33302998 -26.65234375 5.05859375 C-17.68250891 1.07733016 -9.79936065 -0.06252492 0 0 Z " fill="#030303" transform="translate(60,9.5625)"/>
<path d="M0 0 C26.4 0 52.8 0 80 0 C80 7.59 80 15.18 80 23 C70.43 23 60.86 23 51 23 C51 53.36 51 83.72 51 115 C43.41 115 35.82 115 28 115 C28 84.64 28 54.28 28 23 C18.76 23 9.52 23 0 23 C0 15.41 0 7.82 0 0 Z " fill="#030303" transform="translate(636,11)"/>
<path d="M0 0 C0.78656982 0.00354492 1.57313965 0.00708984 2.38354492 0.01074219 C11.63860412 0.27168777 19.39729285 3.28080396 26.3125 9.5 C28.26171875 12.0859375 28.26171875 12.0859375 30 14.875 C30.58136719 15.79023437 31.16273438 16.70546875 31.76171875 17.6484375 C34.7881919 23.21348889 35.65017357 28.09073705 35.5625 34.375 C35.55428223 35.0860791 35.54606445 35.7971582 35.53759766 36.52978516 C35.32120439 46.66303971 32.46782975 54.60099188 25.71484375 62.328125 C18.03600937 69.51682102 7.76820769 71.9148311 -2.46484375 71.765625 C-11.43046199 71.02664071 -18.02208175 67.31956164 -24.453125 61.14453125 C-32.74740843 51.32769579 -34.6289785 40.9779052 -33.6875 28.5 C-31.43790989 18.35756231 -26.17038238 10.9448534 -17.91015625 4.82421875 C-11.83252407 1.20327445 -7.00337111 -0.05699285 0 0 Z " fill="#FCFCFC" transform="translate(158.6875,32.5)"/>
<path d="M0 0 C4.71878688 1.69164058 7.20582817 3.86048618 10 8 C11.56840852 12.70522555 11.54895539 16.52648816 9.8125 21.1875 C7.47953993 24.80761046 4.84455245 27.07772378 1 29 C-3.5519362 29.59635648 -8.05776304 30.02259119 -12.2109375 27.8359375 C-15.58933218 25.05624567 -18.04215813 22.36350184 -19 18 C-19.47696886 12.75334256 -18.86233294 9.44155111 -16 5 C-10.66318214 0.1838473 -7.03590756 -0.65257153 0 0 Z " fill="#0D0D0D" transform="translate(349,140)"/>
<path d="M0 0 C3.375 1.8125 3.375 1.8125 6 4 C6.8971875 4.7425 6.8971875 4.7425 7.8125 5.5 C10.48466471 8.87536595 10.39554154 13.53418948 10.34765625 17.6796875 C9.75529333 21.63321081 7.81627269 24.24631115 5 27 C0.64080619 29.86461308 -4.95561715 29.64671575 -10 29 C-13.7292443 27.23708451 -15.49195941 25.71125683 -17.875 22.375 C-19.70139872 16.89580384 -19.95436053 11.58238733 -17.9375 6.125 C-12.89532691 0.59487468 -7.32302996 -1.34722409 0 0 Z " fill="#090909" transform="translate(530,140)"/>
<path d="M0 0 C3.62330073 1.30550527 6.28743796 3.24146622 8.9375 6.0625 C11.06910661 11.95576534 11.01148334 17.82142049 8.375 23.5 C4.32175864 27.76656985 0.80740733 29.16718524 -5 29.4375 C-9.7262646 29.26692804 -12.48901912 28.33971352 -16 25 C-18.99013752 19.81709497 -19.64726234 15.82536108 -19 10 C-14.9538389 1.9076778 -8.82724725 -1.5198217 0 0 Z " fill="#090909" transform="translate(135,140)"/>
<path d="M0 0 C1.98 0 3.96 0 6 0 C6.64995297 1.41478135 7.29478722 2.83191487 7.9375 4.25 C8.29714844 5.03890625 8.65679687 5.8278125 9.02734375 6.640625 C9.90033279 8.75823698 10.51338508 10.76669362 11 13 C11.66 13 12.32 13 13 13 C13.19335938 12.30132812 13.38671875 11.60265625 13.5859375 10.8828125 C13.84632813 9.97273437 14.10671875 9.06265625 14.375 8.125 C14.75785156 6.76761719 14.75785156 6.76761719 15.1484375 5.3828125 C16 3 16 3 18 1 C20.475 6.445 20.475 6.445 23 12 C24.71017726 9.4347341 25.90417811 7.12039035 27.125 4.3125 C27.47820312 3.50425781 27.83140625 2.69601563 28.1953125 1.86328125 C28.46085937 1.24839844 28.72640625 0.63351563 29 0 C30.98 0 32.96 0 35 0 C34.36065929 3.71524714 33.32252035 7.01787124 31.93359375 10.51953125 C31.53076172 11.54111328 31.12792969 12.56269531 30.71289062 13.61523438 C30.29201172 14.67033203 29.87113281 15.72542969 29.4375 16.8125 C29.01275391 17.88693359 28.58800781 18.96136719 28.15039062 20.06835938 C27.10399344 22.71374552 26.05374756 25.35753511 25 28 C24.01 28 23.02 28 22 28 C20.68 25.03 19.36 22.06 18 19 C16.46478044 21.30282933 15.41642091 23.17862235 14.375 25.6875 C13.92125 26.780625 13.4675 27.87375 13 29 C12.34 29 11.68 29 11 29 C9.42897511 25.19322741 7.8625157 21.38461236 6.30029297 17.57421875 C5.76802214 16.27780317 5.23449895 14.98190106 4.69970703 13.68652344 C3.93194036 11.82622051 3.16902341 9.96391837 2.40625 8.1015625 C1.94541016 6.98088379 1.48457031 5.86020508 1.00976562 4.70556641 C0 2 0 2 0 0 Z " fill="#0C0C0C" transform="translate(189,140)"/>
<path d="M0 0 C14 0 14 0 19 4 C20.42662219 6.85324437 20.31033868 8.83454549 20 12 C19.29875 12.825 18.5975 13.65 17.875 14.5 C17.25625 15.325 16.6375 16.15 16 17 C16.83234949 21.34671401 18.95389969 25.09380849 21 29 C18.69 29 16.38 29 14 29 C13.16151196 27.54462432 12.32936066 26.08559627 11.5 24.625 C11.0359375 23.81289062 10.571875 23.00078125 10.09375 22.1640625 C9 20 9 20 9 18 C8.01 18 7.02 18 6 18 C6 21.63 6 25.26 6 29 C4.02 29 2.04 29 0 29 C0 19.43 0 9.86 0 0 Z " fill="#0F0F0F" transform="translate(251,140)"/>
<path d="M0 0 C3.90775329 1.95387664 5.47622339 3.38892729 8.25 6.625 C8.95640625 7.44226563 9.6628125 8.25953125 10.390625 9.1015625 C10.92171875 9.72804687 11.4528125 10.35453125 12 11 C15.6689056 9.50282328 17.60573328 7.39237269 20.125 4.375 C21.37446801 2.88035336 22.65778112 1.41194453 24 0 C24.66 0 25.32 0 26 0 C26 9.57 26 19.14 26 29 C24.02 29 22.04 29 20 29 C19.67 24.38 19.34 19.76 19 15 C17.35 16.65 15.7 18.3 14 20 C10.90837736 18.61410019 9.50816459 17.50816459 7 15 C6.67 19.62 6.34 24.24 6 29 C4.02 29 2.04 29 0 29 C0 19.43 0 9.86 0 0 Z " fill="#090909" transform="translate(696,140)"/>
<path d="M0 0 C3 0 3 0 4.75390625 1.64453125 C5.35074219 2.35996094 5.94757813 3.07539063 6.5625 3.8125 C7.46162109 4.87404297 7.46162109 4.87404297 8.37890625 5.95703125 C10 8 10 8 12 11 C15.6689056 9.50282328 17.60573328 7.39237269 20.125 4.375 C21.37446801 2.88035336 22.65778112 1.41194453 24 0 C24.66 0 25.32 0 26 0 C26 9.57 26 19.14 26 29 C24.35 29 22.7 29 21 29 C20.67 24.05 20.34 19.1 20 14 C18.02 15.98 16.04 17.96 14 20 C10.90837736 18.61410019 9.50816459 17.50816459 7 15 C6.67 19.62 6.34 24.24 6 29 C4.02 29 2.04 29 0 29 C0 19.43 0 9.86 0 0 Z " fill="#080808" transform="translate(365,140)"/>
<path d="M0 0 C4.00431759 2.0021588 5.72253926 3.63218936 8.625 6.9375 C9.78902344 8.25041016 9.78902344 8.25041016 10.9765625 9.58984375 C13 12 13 12 15 15 C15.33 10.05 15.66 5.1 16 0 C17.98 0 19.96 0 22 0 C22 9.9 22 19.8 22 30 C18.64955966 28.88318655 17.85083657 27.9563104 15.625 25.3125 C15.01785156 24.59707031 14.41070312 23.88164062 13.78515625 23.14453125 C13.19605469 22.43683594 12.60695313 21.72914063 12 21 C11.48308594 20.38511719 10.96617187 19.77023438 10.43359375 19.13671875 C9.2828273 17.76301179 8.14041072 16.38231603 7 15 C6.67 19.62 6.34 24.24 6 29 C4.02 29 2.04 29 0 29 C0 19.43 0 9.86 0 0 Z " fill="#0D0D0D" transform="translate(446,140)"/>
<path d="M0 0 C1.98 0 3.96 0 6 0 C6 9.57 6 19.14 6 29 C4.02 29 2.04 29 0 29 C0 25.04 0 21.08 0 17 C-2.97 17 -5.94 17 -9 17 C-9 20.96 -9 24.92 -9 29 C-10.65 29 -12.3 29 -14 29 C-14 19.76 -14 10.52 -14 1 C-12.35 1 -10.7 1 -9 1 C-9 4.63 -9 8.26 -9 12 C-6.03 12 -3.06 12 0 12 C0 8.04 0 4.08 0 0 Z " fill="#080808" transform="translate(52,140)"/>
<path d="M0 0 C2.3925 -0.0825 4.785 -0.165 7.25 -0.25 C7.99668945 -0.28641602 8.74337891 -0.32283203 9.51269531 -0.36035156 C12.87584228 -0.41643416 14.70055594 -0.21634475 17.44921875 1.76953125 C19.34340303 4.49391217 19.63479252 6.72885937 19.4375 10.02734375 C18.63075377 13.66490485 17.05963991 15.00186782 14 17 C10.87343604 17.40258432 8.17488991 17.23693208 5 17 C5 20.63 5 24.26 5 28 C3.35 28 1.7 28 0 28 C0 18.76 0 9.52 0 0 Z " fill="#020202" transform="translate(398,141)"/>
<path d="M0 0 C0.66 0 1.32 0 2 0 C3.45933706 3.39540285 4.91729178 6.79139757 6.375 10.1875 C6.7875 11.14720703 7.2 12.10691406 7.625 13.09570312 C8.02460937 14.02705078 8.42421875 14.95839844 8.8359375 15.91796875 C9.20251465 16.77156982 9.5690918 17.6251709 9.94677734 18.50463867 C10.29434082 19.32810791 10.6419043 20.15157715 11 21 C11.37463379 21.86794189 11.74926758 22.73588379 12.13525391 23.63012695 C13 26 13 26 13 29 C11.02 29 9.04 29 7 29 C6.67 28.34 6.34 27.68 6 27 C3.64400765 26.53248212 3.64400765 26.53248212 0.9375 26.375 C0.01839844 26.30023438 -0.90070312 26.22546875 -1.84765625 26.1484375 C-2.55792969 26.09945312 -3.26820313 26.05046875 -4 26 C-4 26.99 -4 27.98 -4 29 C-6.31 29 -8.62 29 -11 29 C-8.88355257 22.35831389 -6.4326092 15.89538217 -3.8125 9.4375 C-3.44447266 8.52419922 -3.07644531 7.61089844 -2.69726562 6.66992188 C-1.80056454 4.44563736 -0.90144402 2.22236555 0 0 Z " fill="#0B0B0B" transform="translate(783,140)"/>
<path d="M0 0 C0.66 0 1.32 0 2 0 C3.45933706 3.39540285 4.91729178 6.79139757 6.375 10.1875 C6.7875 11.14720703 7.2 12.10691406 7.625 13.09570312 C8.02460937 14.02705078 8.42421875 14.95839844 8.8359375 15.91796875 C9.20251465 16.77156982 9.5690918 17.6251709 9.94677734 18.50463867 C10.29434082 19.32810791 10.6419043 20.15157715 11 21 C11.37463379 21.86794189 11.74926758 22.73588379 12.13525391 23.63012695 C13 26 13 26 13 29 C11.02 29 9.04 29 7 29 C6.67 28.34 6.34 27.68 6 27 C3.64400765 26.53248212 3.64400765 26.53248212 0.9375 26.375 C0.01839844 26.30023438 -0.90070312 26.22546875 -1.84765625 26.1484375 C-2.55792969 26.09945312 -3.26820313 26.05046875 -4 26 C-4 26.99 -4 27.98 -4 29 C-6.31 29 -8.62 29 -11 29 C-8.88355257 22.35831389 -6.4326092 15.89538217 -3.8125 9.4375 C-3.44447266 8.52419922 -3.07644531 7.61089844 -2.69726562 6.66992188 C-1.80056454 4.44563736 -0.90144402 2.22236555 0 0 Z " fill="#0B0B0B" transform="translate(737,140)"/>
<path d="M0 0 C2.61980115 3.15574522 4.03579015 6.25066481 5.48046875 10.078125 C5.92197266 11.23828125 6.36347656 12.3984375 6.81835938 13.59375 C7.49608398 15.40359375 7.49608398 15.40359375 8.1875 17.25 C8.65091797 18.47203125 9.11433594 19.6940625 9.59179688 20.953125 C10.73363082 23.9666249 11.86945408 26.98225107 13 30 C10.69 30 8.38 30 6 30 C6 29.01 6 28.02 6 27 C2.37 27 -1.26 27 -5 27 C-5 27.99 -5 28.98 -5 30 C-7.31 30 -9.62 30 -12 30 C-8.28723055 19.86229618 -4.35381971 9.88100928 0 0 Z " fill="#0A0A0A" transform="translate(639,139)"/>
<path d="M0 0 C2.86554854 2.46710777 4.04779845 5.00132903 5.48046875 8.47265625 C5.92197266 9.53677734 6.36347656 10.60089844 6.81835938 11.69726562 C7.27017578 12.80779297 7.72199219 13.91832031 8.1875 15.0625 C8.65091797 16.17689453 9.11433594 17.29128906 9.59179688 18.43945312 C13 26.71651786 13 26.71651786 13 29 C10.69 29 8.38 29 6 29 C6 28.01 6 27.02 6 26 C4.35333797 26.1135629 2.70763918 26.24117381 1.0625 26.375 C-0.31228516 26.47941406 -0.31228516 26.47941406 -1.71484375 26.5859375 C-2.46894531 26.72257812 -3.22304688 26.85921875 -4 27 C-4.33 27.66 -4.66 28.32 -5 29 C-6.98 29 -8.96 29 -11 29 C-10.36095942 25.30460566 -9.33807939 22.00415463 -7.96875 18.515625 C-7.57042969 17.49855469 -7.17210937 16.48148438 -6.76171875 15.43359375 C-6.34535156 14.38300781 -5.92898438 13.33242187 -5.5 12.25 C-5.08363281 11.18394531 -4.66726563 10.11789063 -4.23828125 9.01953125 C-1.13448661 1.13448661 -1.13448661 1.13448661 0 0 Z " fill="#0A0A0A" transform="translate(429,140)"/>
<path d="M0 0 C2.86554854 2.46710777 4.04779845 5.00132903 5.48046875 8.47265625 C5.92197266 9.53677734 6.36347656 10.60089844 6.81835938 11.69726562 C7.27017578 12.80779297 7.72199219 13.91832031 8.1875 15.0625 C8.65091797 16.17689453 9.11433594 17.29128906 9.59179688 18.43945312 C13 26.71651786 13 26.71651786 13 29 C10.69 29 8.38 29 6 29 C6 28.01 6 27.02 6 26 C4.35333797 26.1135629 2.70763918 26.24117381 1.0625 26.375 C-0.31228516 26.47941406 -0.31228516 26.47941406 -1.71484375 26.5859375 C-2.46894531 26.72257812 -3.22304687 26.85921875 -4 27 C-4.33 27.66 -4.66 28.32 -5 29 C-6.98 29 -8.96 29 -11 29 C-10.36095942 25.30460566 -9.33807939 22.00415463 -7.96875 18.515625 C-7.57042969 17.49855469 -7.17210937 16.48148438 -6.76171875 15.43359375 C-6.34535156 14.38300781 -5.92898437 13.33242187 -5.5 12.25 C-5.08363281 11.18394531 -4.66726562 10.11789063 -4.23828125 9.01953125 C-1.13448661 1.13448661 -1.13448661 1.13448661 0 0 Z " fill="#0A0A0A" transform="translate(234,140)"/>
<path d="M0 0 C1 1 1 1 1.0625 4.0625 C1.041875 5.031875 1.02125 6.00125 1 7 C0.09507812 6.94779297 0.09507812 6.94779297 -0.828125 6.89453125 C-4.33569872 6.77572633 -7.24398276 6.72340833 -10.5625 7.9375 C-12.59863538 10.85891163 -12.43941503 13.35097906 -12.43359375 16.84375 C-11.90055288 19.49454785 -11.14091929 20.38430623 -9 22 C-5.89160979 22.7269226 -5.89160979 22.7269226 -3 23 C-3 20.36 -3 17.72 -3 15 C-1.35 15 0.3 15 2 15 C2 19.29 2 23.58 2 28 C-2.07094774 29.35698258 -5.74353744 29.52387231 -10 29 C-14.38544865 26.80727567 -17.23315916 24.61341775 -19 20 C-19.52740476 15.1434812 -19.6097851 10.68587645 -17.9375 6.0625 C-12.68024773 0.46607016 -7.47301871 -0.97822777 0 0 Z " fill="#0B0B0B" transform="translate(594,140)"/>
<path d="M0 0 C2.83463569 2.4246448 3.83886355 4.71788627 5.04296875 8.21875 C5.39423828 9.23324219 5.74550781 10.24773437 6.10742188 11.29296875 C6.46384766 12.35128906 6.82027344 13.40960938 7.1875 14.5 C7.55552734 15.55832031 7.92355469 16.61664063 8.30273438 17.70703125 C11 25.58364738 11 25.58364738 11 29 C4.07 29 -2.86 29 -10 29 C-6.625 17.75 -6.625 17.75 -5.17578125 13.8671875 C-4.71655273 12.6296875 -4.71655273 12.6296875 -4.24804688 11.3671875 C-3.93931641 10.54476562 -3.63058594 9.72234375 -3.3125 8.875 C-2.83200195 7.58335938 -2.83200195 7.58335938 -2.34179688 6.265625 C-1.56399918 4.17601926 -0.78338154 2.08751732 0 0 Z " fill="#F4F4F4" transform="translate(762,63)"/>
<path d="M0 0 C4.95 0 9.9 0 15 0 C15 1.98 15 3.96 15 6 C12.03 6 9.06 6 6 6 C6 7.98 6 9.96 6 12 C8.31 12 10.62 12 13 12 C13 13.65 13 15.3 13 17 C10.69 17 8.38 17 6 17 C6 18.98 6 20.96 6 23 C8.97 23 11.94 23 15 23 C15 24.98 15 26.96 15 29 C10.05 29 5.1 29 0 29 C0 19.43 0 9.86 0 0 Z " fill="#0F0F0F" transform="translate(64,140)"/>
<path d="M0 0 C1.65 0 3.3 0 5 0 C5.02505615 0.60062256 5.0501123 1.20124512 5.07592773 1.82006836 C5.1915528 4.52611437 5.31442936 7.23178283 5.4375 9.9375 C5.47681641 10.88302734 5.51613281 11.82855469 5.55664062 12.80273438 C5.59853516 13.70185547 5.64042969 14.60097656 5.68359375 15.52734375 C5.72025146 16.35999756 5.75690918 17.19265137 5.79467773 18.05053711 C5.79367103 20.00338858 5.79367103 20.00338858 7 21 C8.99958364 21.04080783 11.00045254 21.04254356 13 21 C14.14654482 18.70691037 14.19729117 17.20090344 14.31640625 14.6484375 C14.35830078 13.79765625 14.40019531 12.946875 14.44335938 12.0703125 C14.48267578 11.18085938 14.52199219 10.29140625 14.5625 9.375 C14.60568359 8.4778125 14.64886719 7.580625 14.69335938 6.65625 C14.79956861 4.43765717 14.90161194 2.2189512 15 0 C16.65 0 18.3 0 20 0 C20.08745946 3.3956697 20.14054444 6.79104773 20.1875 10.1875 C20.21263672 11.14720703 20.23777344 12.10691406 20.26367188 13.09570312 C20.35709154 22.09513128 20.35709154 22.09513128 17 26 C13.31502204 28.45665197 10.28028214 28.70086491 6 28 C3.1899654 26.20636089 1.49059532 24.98119065 0 22 C-0.08426094 20.3325394 -0.10725143 18.66174813 -0.09765625 16.9921875 C-0.09443359 16.00605469 -0.09121094 15.01992187 -0.08789062 14.00390625 C-0.07951172 12.97136719 -0.07113281 11.93882812 -0.0625 10.875 C-0.05798828 9.83472656 -0.05347656 8.79445312 -0.04882812 7.72265625 C-0.03701952 5.14838038 -0.02055075 2.57421854 0 0 Z " fill="#030303" transform="translate(603,141)"/>
<path d="M0 0 C4.62 0 9.24 0 14 0 C14 1.65 14 3.3 14 5 C11.03 5 8.06 5 5 5 C5 6.98 5 8.96 5 11 C7.64 11 10.28 11 13 11 C13 12.98 13 14.96 13 17 C10.69 17 8.38 17 6 17 C6 18.65 6 20.3 6 22 C8.97 22 11.94 22 15 22 C15 23.98 15 25.96 15 28 C10.05 28 5.1 28 0 28 C0 18.76 0 9.52 0 0 Z " fill="#0A0A0A" transform="translate(676,141)"/>
<path d="M0 0 C4.62 0 9.24 0 14 0 C14 1.65 14 3.3 14 5 C11.03 5 8.06 5 5 5 C5 6.98 5 8.96 5 11 C7.64 11 10.28 11 13 11 C13 12.98 13 14.96 13 17 C10.69 17 8.38 17 6 17 C6 18.65 6 20.3 6 22 C8.97 22 11.94 22 15 22 C15 23.98 15 25.96 15 28 C10.05 28 5.1 28 0 28 C0 18.76 0 9.52 0 0 Z " fill="#0A0A0A" transform="translate(276,141)"/>
<path d="M0 0 C0.66 0.33 1.32 0.66 2 1 C1.67 2.65 1.34 4.3 1 6 C-1.31 6.33 -3.62 6.66 -6 7 C-6.33 8.32 -6.66 9.64 -7 11 C-6.113125 11.226875 -5.22625 11.45375 -4.3125 11.6875 C-0.37711226 13.24680457 1.52661316 14.55224864 4 18 C4.32475761 20.86682581 4.12073779 23.33476287 3 26 C0.83003202 28.14569541 -0.46735599 28.93030826 -3.5078125 29.328125 C-4.37148437 29.30234375 -5.23515625 29.2765625 -6.125 29.25 C-6.99382812 29.23453125 -7.86265625 29.2190625 -8.7578125 29.203125 C-11 29 -11 29 -13 28 C-13 25.69 -13 23.38 -13 21 C-12.34 21.33 -11.68 21.66 -11 22 C-9.62657169 22.0689472 -8.24997898 22.08467708 -6.875 22.0625 C-5.59625 22.041875 -4.3175 22.02125 -3 22 C-3 21.01 -3 20.02 -3 19 C-3.83144531 18.61908203 -3.83144531 18.61908203 -4.6796875 18.23046875 C-5.40414062 17.88628906 -6.12859375 17.54210937 -6.875 17.1875 C-7.59429687 16.85105469 -8.31359375 16.51460937 -9.0546875 16.16796875 C-11 15 -11 15 -13 12 C-13.56045628 7.67648012 -13.4786058 5.70295227 -11 2.0625 C-6.92969005 -0.73583809 -4.86254774 -0.47828338 0 0 Z " fill="#0F0F0F" transform="translate(108,140)"/>
<path d="M0 0 C0.66 0.33 1.32 0.66 2 1 C2 2.98 2 4.96 2 7 C1.09507812 6.93039063 1.09507812 6.93039063 0.171875 6.859375 C-3.63542367 6.68743248 -6.23266117 6.57979064 -9.625 8.4375 C-11.45176027 11.84191686 -11.10854313 14.21447991 -10.65234375 17.9765625 C-10.11043343 20.37538867 -10.11043343 20.37538867 -7 22 C-4.71351152 22.24107326 -4.71351152 22.24107326 -2.3125 22.125 C-1.50425781 22.10695312 -0.69601562 22.08890625 0.13671875 22.0703125 C0.75160156 22.04710937 1.36648438 22.02390625 2 22 C2.33 23.98 2.66 25.96 3 28 C-1.77364362 29.59121454 -6.15016855 29.79879085 -10.75 27.8125 C-14.25536595 24.98873298 -16.57096705 22.28709884 -18 18 C-18.3823833 13.33492377 -18.47936179 10.95872359 -16.375 6.75 C-11.28265286 0.85359805 -7.54452595 -0.6287105 0 0 Z " fill="#0C0C0C" transform="translate(324,140)"/>
<path d="M0 0 C2.6875 -0.5 2.6875 -0.5 6 0 C7.60190362 1.97958821 8.74652704 3.99333192 9.921875 6.25 C10.27765625 6.8275 10.6334375 7.405 11 8 C11.66 8 12.32 8 13 8 C13.77801468 6.69456713 14.49848327 5.35451753 15.1875 4 C16.4921875 1.78125 16.4921875 1.78125 18 0 C21.8125 -0.5 21.8125 -0.5 25 0 C24.25343232 1.37686662 23.50253972 2.75138835 22.75 4.125 C22.29625 4.95902344 21.8425 5.79304687 21.375 6.65234375 C20 9 20 9 17.75 11.6875 C14.8924265 17.09647841 15.16524788 22.9684524 15 29 C13.02 29 11.04 29 9 29 C9.020625 28.14019531 9.04125 27.28039062 9.0625 26.39453125 C8.90035774 17.10175321 6.93277538 12.06656558 1.71484375 4.546875 C0 2 0 2 0 0 Z " fill="#101010" transform="translate(472,140)"/>
<path d="M0 0 C4.95 0 9.9 0 15 0 C15 1.98 15 3.96 15 6 C12.03 6 9.06 6 6 6 C6 7.98 6 9.96 6 12 C8.31 12 10.62 12 13 12 C13 13.65 13 15.3 13 17 C10.69 17 8.38 17 6 17 C6 20.96 6 24.92 6 29 C4.02 29 2.04 29 0 29 C0 19.43 0 9.86 0 0 Z " fill="#141414" transform="translate(545,140)"/>
<path d="M0 0 C6.6 0 13.2 0 20 0 C20 1.98 20 3.96 20 6 C17.69 6 15.38 6 13 6 C13 13.59 13 21.18 13 29 C11.02 29 9.04 29 7 29 C7 21.41 7 13.82 7 6 C4.69 6 2.38 6 0 6 C0 4.02 0 2.04 0 0 Z " fill="#141414" transform="translate(651,140)"/>
<path d="M0 0 C6.6 0 13.2 0 20 0 C20 1.98 20 3.96 20 6 C17.69 6 15.38 6 13 6 C13 13.59 13 21.18 13 29 C11.02 29 9.04 29 7 29 C7 21.41 7 13.82 7 6 C4.69 6 2.38 6 0 6 C0 4.02 0 2.04 0 0 Z " fill="#141414" transform="translate(167,140)"/>
<path d="M0 0 C3.5 0.625 3.5 0.625 6.5 2.5625 C8.96151739 6.33169851 8.77768022 8.21599236 8.1875 12.5390625 C7.36852645 15.02390271 6.6076815 16.07904683 4.5 17.625 C1.43138519 18.30314692 -1.41758714 18.20921182 -4.5 17.625 C-7.81578076 14.95620085 -8.39008359 13.30892436 -9.0625 9.125 C-8.5 5.625 -8.5 5.625 -6.4375 2.6875 C-3.5 0.625 -3.5 0.625 0 0 Z " fill="#F8F8F8" transform="translate(525.5,145.375)"/>
<path d="M0 0 C4.45850936 0.79616239 5.90783917 1.93313458 8.5 5.625 C9.15622237 9.70816143 8.87781677 11.85293965 7.0625 15.5625 C3.8080567 18.18192997 1.72587726 18.35520174 -2.37109375 18.10546875 C-4.5 17.625 -4.5 17.625 -7.0625 15.5625 C-8.87781677 11.85293965 -9.15622237 9.70816143 -8.5 5.625 C-5.90783917 1.93313458 -4.45850936 0.79616239 0 0 Z " fill="#F7F7F7" transform="translate(130.5,145.375)"/>
<path d="M0 0 C6.93 0 13.86 0 21 0 C21 1.98 21 3.96 21 6 C18.36 6 15.72 6 13 6 C13 13.59 13 21.18 13 29 C11.35 29 9.7 29 8 29 C8 21.41 8 13.82 8 6 C5.36 6 2.72 6 0 6 C0 4.02 0 2.04 0 0 Z " fill="#101010" transform="translate(13,140)"/>
<path d="M0 0 C4.15672698 0.74227268 5.83984093 1.31995388 8.5 4.625 C9.40002172 8.92773541 9.23145407 12.37543263 7 16.1875 C3.45912093 18.22350547 0.488071 18.41933858 -3.5 17.625 C-6.79291844 15.51415485 -7.38775952 13.98152858 -8.5625 10.25 C-8.5 6.625 -8.5 6.625 -6.5 3.1875 C-3.5 0.625 -3.5 0.625 0 0 Z " fill="#F7F7F7" transform="translate(344.5,145.375)"/>
<path d="M0 0 C4.62 0 9.24 0 14 0 C14 1.65 14 3.3 14 5 C11.03 5 8.06 5 5 5 C5 6.98 5 8.96 5 11 C7.31 11 9.62 11 12 11 C12 12.65 12 14.3 12 16 C9.69 16 7.38 16 5 16 C5 19.96 5 23.92 5 28 C3.35 28 1.7 28 0 28 C0 18.76 0 9.52 0 0 Z " fill="#000000" transform="translate(151,141)"/>
<path d="M0 0 C1.65 0 3.3 0 5 0 C5 7.59 5 15.18 5 23 C7.97 23 10.94 23 14 23 C14 24.65 14 26.3 14 28 C9.38 28 4.76 28 0 28 C0 18.76 0 9.52 0 0 Z " fill="#000000" transform="translate(755,141)"/>
<path d="M0 0 C3.32993034 3.82941989 5.05324525 8.37522222 7 13 C6 14 6 14 3.49609375 14.09765625 C1.98208984 14.08025391 1.98208984 14.08025391 0.4375 14.0625 C-0.57441406 14.05347656 -1.58632812 14.04445312 -2.62890625 14.03515625 C-3.41136719 14.02355469 -4.19382813 14.01195312 -5 14 C-5.33 13.34 -5.66 12.68 -6 12 C-5.34 12 -4.68 12 -4 12 C-3.79503906 11.30132812 -3.59007812 10.60265625 -3.37890625 9.8828125 C-3.10949219 8.97273437 -2.84007812 8.06265625 -2.5625 7.125 C-2.29566406 6.22007812 -2.02882812 5.31515625 -1.75390625 4.3828125 C-1 2 -1 2 0 0 Z " fill="#EDEDED" transform="translate(206,157)"/>
<path d="M0 0 C2.33294775 -0.04241723 4.66702567 -0.04092937 7 0 C8 1 8 1 8.125 3.5 C8 6 8 6 7 7 C4.66702567 7.04092937 2.33294775 7.04241723 0 7 C0 4.69 0 2.38 0 0 Z " fill="#D9D9D9" transform="translate(403,146)"/>
<path d="M0 0 C2.875 -0.125 2.875 -0.125 6 0 C6.66 0.66 7.32 1.32 8 2 C7.625 4.125 7.625 4.125 7 6 C4.69 6 2.38 6 0 6 C0 4.02 0 2.04 0 0 Z " fill="#F4F4F4" transform="translate(257,146)"/>
<path d="M0 0 C0.66 0.33 1.32 0.66 2 1 C2.625 4.0625 2.625 4.0625 3 7 C1.35 7 -0.3 7 -2 7 C-1.125 1.125 -1.125 1.125 0 0 Z " fill="#C3C3C3" transform="translate(639,154)"/>
<path d="M0 0 C2.35953094 2.35953094 2.49141413 3.77895617 3 7 C1.35 7 -0.3 7 -2 7 C-1.125 1.125 -1.125 1.125 0 0 Z " fill="#C7C7C7" transform="translate(784,154)"/>
<path d="M0 0 C2.35953094 2.35953094 2.49141413 3.77895617 3 7 C1.35 7 -0.3 7 -2 7 C-1.125 1.125 -1.125 1.125 0 0 Z " fill="#C7C7C7" transform="translate(738,154)"/>
<path d="M0 0 C0.66 0.33 1.32 0.66 2 1 C2.625 4.0625 2.625 4.0625 3 7 C1.35 7 -0.3 7 -2 7 C-1.34 4.69 -0.68 2.38 0 0 Z " fill="#CCCCCC" transform="translate(429,154)"/>
<path d="M0 0 C0.66 0.33 1.32 0.66 2 1 C2.625 4.0625 2.625 4.0625 3 7 C1.35 7 -0.3 7 -2 7 C-1.34 4.69 -0.68 2.38 0 0 Z " fill="#CCCCCC" transform="translate(234,154)"/>
</svg>
